/* XPM */
static char * guaduelo_xpm[] = {
"32 32 546 2",
"  	c None",
". 	c #6F89BE",
"+ 	c #6680B8",
"@ 	c #657EB6",
"# 	c #6982BA",
"$ 	c #6982B8",
"% 	c #6881B8",
"& 	c #7A93C3",
"* 	c #7B94C4",
"= 	c #6E88BC",
"- 	c #738CBF",
"; 	c #778EC0",
"> 	c #849AC5",
", 	c #92A8CF",
"' 	c #90A6CF",
") 	c #7E95C6",
"! 	c #728BC0",
"~ 	c #748EC1",
"{ 	c #7791C2",
"] 	c #758FC2",
"^ 	c #6780B7",
"/ 	c #6D87BC",
"( 	c #647EB5",
"_ 	c #6780B8",
": 	c #6C85B9",
"< 	c #7791C1",
"[ 	c #7E98C5",
"} 	c #7891C2",
"| 	c #738BC0",
"1 	c #728ABD",
"2 	c #95A7CE",
"3 	c #C7D0E3",
"4 	c #D9DFEC",
"5 	c #AEBDDA",
"6 	c #788EBF",
"7 	c #718BBE",
"8 	c #7089BE",
"9 	c #6881B7",
"0 	c #6B84BA",
"a 	c #617AB2",
"b 	c #627BB2",
"c 	c #6982B7",
"d 	c #667FB6",
"e 	c #6D86BD",
"f 	c #738CC0",
"g 	c #7087BA",
"h 	c #7A91C1",
"i 	c #839AC6",
"j 	c #889FC9",
"k 	c #869ECB",
"l 	c #7C95C6",
"m 	c #7D95C4",
"n 	c #A3B5D5",
"o 	c #D1D9E8",
"p 	c #DFE4EF",
"q 	c #A9B6D5",
"r 	c #6F86B8",
"s 	c #778FC2",
"t 	c #6A83B9",
"u 	c #6179B2",
"v 	c #627BB3",
"w 	c #627DB5",
"x 	c #657FB7",
"y 	c #637CB3",
"z 	c #6781B7",
"A 	c #6B84B9",
"B 	c #657EB5",
"C 	c #6881B6",
"D 	c #758DBE",
"E 	c #8B9EC6",
"F 	c #B2BFDA",
"G 	c #B8C5DD",
"H 	c #98AACE",
"I 	c #7D95C3",
"J 	c #7C95C4",
"K 	c #7E98C6",
"L 	c #849BC7",
"M 	c #91A3CA",
"N 	c #9CACCE",
"O 	c #91A5CB",
"P 	c #6E85B8",
"Q 	c #637CB5",
"R 	c #667FB7",
"S 	c #6782B7",
"T 	c #8098C8",
"U 	c #7089BD",
"V 	c #728CBE",
"W 	c #6D86BC",
"X 	c #748EBF",
"Y 	c #7890C1",
"Z 	c #7F95C4",
"` 	c #A9B7D5",
" .	c #E6EAF2",
"..	c #EEF1F6",
"+.	c #BBC7DF",
"@.	c #879CC6",
"#.	c #8098C5",
"$.	c #839CC8",
"%.	c #7B94C3",
"&.	c #7088BB",
"*.	c #748CBC",
"=.	c #8BA3CD",
"-.	c #7F97C6",
";.	c #6F88BC",
">.	c #6F89BC",
",.	c #718BBD",
"'.	c #6680B7",
").	c #758FBF",
"!.	c #7992C3",
"~.	c #7B95C5",
"{.	c #7892C2",
"].	c #6F88BD",
"^.	c #7790C0",
"/.	c #7990C0",
"(.	c #C6D0E4",
"_.	c #CFD7E7",
":.	c #BEC9DF",
"<.	c #AAB8D4",
"[.	c #A7B6D4",
"}.	c #ACBBD9",
"|.	c #9DB0D3",
"1.	c #7E95C3",
"2.	c #718ABC",
"3.	c #7B96C5",
"4.	c #7691C1",
"5.	c #667EB7",
"6.	c #738EC0",
"7.	c #6A84B9",
"8.	c #6780B6",
"9.	c #6A84B8",
"0.	c #6D87BB",
"a.	c #647DB5",
"b.	c #6880B8",
"c.	c #6F86BB",
"d.	c #7C93C3",
"e.	c #7F96C4",
"f.	c #7B91BF",
"g.	c #879BC5",
"h.	c #A3B4D4",
"i.	c #AEBDD9",
"j.	c #CED6E6",
"k.	c #E8ECF2",
"l.	c #EBEEF4",
"m.	c #E9EDF4",
"n.	c #CDD6E7",
"o.	c #9EB1D3",
"p.	c #6C86BA",
"q.	c #6781B8",
"r.	c #839CC9",
"s.	c #738DC0",
"t.	c #6C85BB",
"u.	c #6981B6",
"v.	c #778DBD",
"w.	c #8EA2CA",
"x.	c #A4B4D4",
"y.	c #AEBCD7",
"z.	c #B2BFD8",
"A.	c #B5C1DA",
"B.	c #B3C0DA",
"C.	c #B5C2DB",
"D.	c #DEE4EF",
"E.	c #FBFBFC",
"F.	c #FEFEFE",
"G.	c #FBFCFD",
"H.	c #E0E5F0",
"I.	c #A9BAD8",
"J.	c #7990C1",
"K.	c #647DB4",
"L.	c #637CB4",
"M.	c #6B85BB",
"N.	c #768FC2",
"O.	c #718ABE",
"P.	c #6F8ABC",
"Q.	c #7790C1",
"R.	c #7C93C2",
"S.	c #8B9DC6",
"T.	c #B1BDD8",
"U.	c #D9E0EC",
"V.	c #EBEFF5",
"W.	c #F0F2F7",
"X.	c #F1F3F8",
"Y.	c #F1F3F7",
"Z.	c #EDF0F5",
"`.	c #E7EBF2",
" +	c #F2F3F8",
".+	c #FCFCFD",
"++	c #A3B3D4",
"@+	c #728BBF",
"#+	c #708ABD",
"$+	c #708ABC",
"%+	c #748EC0",
"&+	c #6C84B9",
"*+	c #7089BC",
"=+	c #758FC0",
"-+	c #6B85B9",
";+	c #758EC1",
">+	c #8099C8",
",+	c #8EA1CA",
"'+	c #BFC9E0",
")+	c #EBEEF5",
"!+	c #FDFDFE",
"~+	c #FDFDFD",
"{+	c #FCFDFD",
"]+	c #F9FAFC",
"^+	c #DCE2EE",
"/+	c #A1B2D2",
"(+	c #7890BE",
"_+	c #7790C2",
":+	c #7E97C7",
"<+	c #768EC0",
"[+	c #758CBF",
"}+	c #849BC9",
"|+	c #7D96C4",
"1+	c #7690C2",
"2+	c #748FC0",
"3+	c #7A94C4",
"4+	c #839BCA",
"5+	c #89A0CC",
"6+	c #92A8CE",
"7+	c #A9B9D7",
"8+	c #FAFBFC",
"9+	c #F2F3F7",
"0+	c #EAEDF4",
"a+	c #FBFCFC",
"b+	c #F6F7FA",
"c+	c #E1E6EF",
"d+	c #D2DAE8",
"e+	c #BDC9E0",
"f+	c #97AACF",
"g+	c #7F97C4",
"h+	c #849BCA",
"i+	c #879FCB",
"j+	c #859EC9",
"k+	c #839DCB",
"l+	c #7690C3",
"m+	c #728CC0",
"n+	c #758DC0",
"o+	c #7D96C5",
"p+	c #93A9CF",
"q+	c #BAC7DE",
"r+	c #EDF0F6",
"s+	c #CAD3E5",
"t+	c #B3C1D9",
"u+	c #C8D3E4",
"v+	c #E8EBF2",
"w+	c #EFF1F6",
"x+	c #C0CADF",
"y+	c #9BACCF",
"z+	c #97ABD1",
"A+	c #8EA4CE",
"B+	c #7C94C5",
"C+	c #7C96C5",
"D+	c #819BC8",
"E+	c #748FBF",
"F+	c #768FC1",
"G+	c #718ABF",
"H+	c #6C85BA",
"I+	c #8FA4CC",
"J+	c #BFCAE0",
"K+	c #F2F4F8",
"L+	c #F7F8FA",
"M+	c #D0D8E7",
"N+	c #A0B1D2",
"O+	c #93A7CE",
"P+	c #CDD5E5",
"Q+	c #F4F5F9",
"R+	c #9CAFD1",
"S+	c #869DC9",
"T+	c #7D94C3",
"U+	c #738ABE",
"V+	c #728CBF",
"W+	c #728BBE",
"X+	c #8A9FC8",
"Y+	c #C2CDE1",
"Z+	c #F3F5F8",
"`+	c #BEC8DE",
" @	c #90A3CA",
".@	c #8EA2CB",
"+@	c #90A1CA",
"@@	c #C2CBE1",
"#@	c #F9FAFB",
"$@	c #DBE2EE",
"%@	c #AFC0DD",
"&@	c #849BC8",
"*@	c #7991C1",
"=@	c #7C94C4",
"-@	c #718CBE",
";@	c #6F89BD",
">@	c #6E88BB",
",@	c #7E99C7",
"'@	c #859ECA",
")@	c #829AC8",
"!@	c #92A6CD",
"~@	c #CCD5E6",
"{@	c #BBC6DD",
"]@	c #8EA2C9",
"^@	c #8399C5",
"/@	c #8B9EC7",
"(@	c #C2CCE2",
"_@	c #F3F5F9",
":@	c #DBE1ED",
"<@	c #AABAD9",
"[@	c #849BC6",
"}@	c #859FCA",
"|@	c #869FCA",
"1@	c #7F98C6",
"2@	c #7892C3",
"3@	c #819AC7",
"4@	c #8098C7",
"5@	c #7691C2",
"6@	c #758FC1",
"7@	c #849DCB",
"8@	c #8DA1C9",
"9@	c #C8D2E5",
"0@	c #F5F7FA",
"a@	c #7E94C2",
"b@	c #90A3CB",
"c@	c #C3CDE2",
"d@	c #A5B5D5",
"e@	c #869CC8",
"f@	c #8098C6",
"g@	c #879FCC",
"h@	c #849DC9",
"i@	c #7F97C7",
"j@	c #7590C1",
"k@	c #7F9AC7",
"l@	c #87A0CC",
"m@	c #9BAED3",
"n@	c #C9D3E6",
"o@	c #F5F6F9",
"p@	c #C0CBE0",
"q@	c #879EC8",
"r@	c #96AACF",
"s@	c #D8DEEB",
"t@	c #A2B3D4",
"u@	c #859DC8",
"v@	c #7F97C5",
"w@	c #768FC0",
"x@	c #809BC8",
"y@	c #829AC9",
"z@	c #829BC8",
"A@	c #809AC8",
"B@	c #7E98C7",
"C@	c #7791C3",
"D@	c #7993C3",
"E@	c #9BAFD3",
"F@	c #C7D2E5",
"G@	c #F4F6F9",
"H@	c #C8D2E4",
"I@	c #8FA5CD",
"J@	c #9FB1D2",
"K@	c #C9D2E4",
"L@	c #F6F8FA",
"M@	c #D0D8E8",
"N@	c #89A2CB",
"O@	c #7690C1",
"P@	c #839CCA",
"Q@	c #7890C2",
"R@	c #7D98C5",
"S@	c #6E87BD",
"T@	c #C1CCE1",
"U@	c #F1F4F8",
"V@	c #FAFAFC",
"W@	c #DFE5EF",
"X@	c #B4C2DC",
"Y@	c #9EB1D2",
"Z@	c #B3C2DB",
"`@	c #DAE0EC",
" #	c #91A5CC",
".#	c #88A1CB",
"+#	c #829BC7",
"@#	c #748DBE",
"##	c #7893C3",
"$#	c #7C97C5",
"%#	c #738DBF",
"&#	c #6E87BB",
"*#	c #849AC7",
"=#	c #B0BCD9",
"-#	c #E9ECF3",
";#	c #E0E5EF",
">#	c #ECEFF6",
",#	c #BAC8E0",
"'#	c #96ABD1",
")#	c #7E97C5",
"!#	c #748DBF",
"~#	c #748DC1",
"{#	c #6E87BC",
"]#	c #758EC0",
"^#	c #7792C2",
"/#	c #7A94C5",
"(#	c #7D94C4",
"_#	c #9CAED0",
":#	c #D6DEEB",
"<#	c #A5B6D6",
"[#	c #91A6CE",
"}#	c #7A92C2",
"|#	c #7892C1",
"1#	c #7994C4",
"2#	c #748DC0",
"3#	c #708ABF",
"4#	c #6D86BA",
"5#	c #819BC9",
"6#	c #7B93C5",
"7#	c #889FC8",
"8#	c #A9B8D6",
"9#	c #D8DFEC",
"0#	c #A6B6D5",
"a#	c #7F94C3",
"b#	c #728ABE",
"c#	c #728BBD",
"d#	c #829BC9",
"e#	c #7A92C4",
"f#	c #718BBF",
"g#	c #6882B8",
"h#	c #7991C2",
"i#	c #7B91C0",
"j#	c #97A7CB",
"k#	c #CAD2E4",
"l#	c #F0F2F6",
"m#	c #E5E9F2",
"n#	c #D6DCEA",
"o#	c #A6B8D6",
"p#	c #8BA1CB",
"q#	c #7891C3",
"r#	c #7189BD",
"s#	c #7189BE",
"t#	c #6880B6",
"u#	c #7E95C4",
"v#	c #BBC5DC",
"w#	c #EAEDF3",
"x#	c #F2F4F7",
"y#	c #C9D1E2",
"z#	c #A8B7D4",
"A#	c #A1B1D1",
"B#	c #95A6C9",
"C#	c #92A5CB",
"D#	c #8AA0C9",
"E#	c #849CC8",
"F#	c #758DBF",
"G#	c #6179B1",
"H#	c #6079B2",
"I#	c #6882B6",
"J#	c #7993C1",
"K#	c #778DBE",
"L#	c #A6B4D3",
"M#	c #E4E8F1",
"N#	c #D1D8E6",
"O#	c #ACB9D4",
"P#	c #9FAECE",
"Q#	c #94A4C8",
"R#	c #98A9CD",
"S#	c #95A8CC",
"T#	c #8DA1C8",
"U#	c #879CC7",
"V#	c #819AC8",
"W#	c #7992C1",
"X#	c #6F88BA",
"Y#	c #7A94C2",
"Z#	c #657FB6",
"`#	c #6883B7",
" $	c #6B85B8",
".$	c #758EBF",
"+$	c #C0CBE1",
"@$	c #F6F7F9",
"#$	c #DEE2ED",
"$$	c #D9DFEB",
"%$	c #DAE1EC",
"&$	c #D4DCEA",
"*$	c #B0BFDA",
"=$	c #99AED2",
"-$	c #738BBD",
";$	c #718ABB",
">$	c #87A0CB",
",$	c #7F98C7",
"'$	c #6680B6",
")$	c #8AA1CA",
"!$	c #E9ECF4",
"~$	c #FDFEFE",
"{$	c #ECEFF5",
"]$	c #D2DBEA",
"^$	c #A6B7D7",
"/$	c #8298C5",
"($	c #738CBD",
"_$	c #7690C0",
":$	c #7990BF",
"<$	c #8C9EC7",
"[$	c #BCC7DE",
"}$	c #E1E5F0",
"|$	c #EEF1F7",
"1$	c #EEF0F6",
"2$	c #E5EAF3",
"3$	c #C0CCE2",
"4$	c #98ADD2",
"5$	c #657EB4",
"6$	c #637DB4",
"7$	c #6982B9",
"8$	c #6F86B9",
"9$	c #7E92BF",
"0$	c #91A2C8",
"a$	c #9FB0D1",
"b$	c #A2B3D3",
"c$	c #9FAFCF",
"d$	c #A1B0D1",
"e$	c #A4B3D3",
"f$	c #A7B7D6",
"g$	c #B2C1DC",
"h$	c #ADBDD9",
"i$	c #A6B7D5",
"j$	c #97AAD0",
"k$	c #88A0CB",
"l$	c #657FB5",
"m$	c #647DB3",
"n$	c #627CB3",
"o$	c #617BB3",
"p$	c #6C86BB",
"q$	c #708ABE",
"r$	c #728CBD",
"s$	c #758CBE",
"t$	c #7C92C2",
"u$	c #7A93C1",
"v$	c #7188BB",
"w$	c #6F87B9",
"x$	c #7189BA",
"y$	c #7D94C2",
"z$	c #7B92C1",
"A$	c #7C94C2",
"B$	c #8CA1CB",
"C$	c #96ACD1",
"D$	c #91A8CF",
"E$	c #859CC8",
"F$	c #728DBE",
"G$	c #7088BC",
"H$	c #7890C3",
"I$	c #7890C0",
"J$	c #6E88BA",
"K$	c #748EBE",
"L$	c #7C95C3",
"M$	c #89A1CC",
"N$	c #6F88BB",
"O$	c #7993C4",
"P$	c #7B92C4",
"Q$	c #8199C7",
"R$	c #778FC0",
"S$	c #738BBE",
"T$	c #849CC9",
"U$	c #7B95C4",
"                  . + @ # $ % & * * & = - ; > , ' ) ! ~ { ]     ",
"                ^ / = ( _ # $ : < [ } | 1 2 3 4 5 6 7 8 9 $ /   ",
"              0 a b c d e f g h i j k l m n o p q r : s t u v   ",
"          w x y d z A B C D E F G H I J K L M N O P Q R y d S   ",
"        T U = V A ^ W X Y Z `  ...+.@.#.$.%.&.*.=.-.;.>.,.t '.  ",
"      ).!.~.{.].d R % X ^./.H (._.:.<.[.}.|.1.2.^.{.3.4./ d 5.  ",
"    6.7.8.9.0.a.b.0 c.d.e.f.g.h.i.j.k.l.m.n.o.^.t 8.: p.a._ q.  ",
"  r.s._ a.v t.B u.v.w.x.y.z.A.B.C.D.E.F.G.H.I.J._ K.L.M.v v a.  ",
"  N.W O.,.P.Q.R.S.T.U.V.W.X.Y.Z.`. +.+F..+D.++J.@+#+$+%+U &+*+  ",
"  =+-+].;+>+1.,+'+)+G.F.F.F.F.F.!+~+!+{+]+^+/+(+U _+:+<+[+}+|+  ",
"  1+2+3+4+5+6+7+^+8+F..+9+0+Y.a+F.F.b+c+d+e+f+g+3.h+i+j+!.~.p.  ",
"  k+l+m+n+o+p+q+r+F..+r+s+t+u+v+.+F.w+x+y+z+A+B+f ;+C+D+E+>._   ",
"  F+t.G+H+=+I+J+K+F.L+M+N+O+++P+L+F.Q+s+R+S+T+U+O.H+%+{ = =+s.  ",
"  #+;+{.V+W+X+Y+Q+F.Z+`+ @.@+@@@Q+F.#@$@%@&@*@=@{.-@;@>@= =+f   ",
"  =+,@'@)@<+!@~@b+F.K+{@]@^@/@(@_@F.8+:@<@[@#.}@|@1@@+2@3@4@O.  ",
"  5@6@7@i+Y 8@9@0@F._@J+]@a@b@c@K+F.E.:@d@e@f@%.g@h@- 7 } i+i@  ",
"  5@#+j@k@l@m@n@o@F._@p@!@q@r@(@Z+F.#@s@t@u@v@w@{ x@7@y@{.z@A@  ",
"  B@C@1+D@r.E@F@G@F.o@H@|.I@J@K@b+F.L@M@R+N@h@* O@3+A@P@D@Q@;.  ",
"  R@#+;.S@D@6+T@U@F.V@W@X@Y@Z@`@]+F.K+c@ #.#+#@#;.].##$#%#$+&#  ",
"  7 = ~ = W+*#=#-#!+F.b+;#d+W@K+~+F.>#,#'#)#^.!#~#{#U G+p.O@]#  ",
"  V+^#/#~ @+(#_#_.G@F.F.{+8+G.F.F.L+:#<#[#}#|#o+1#2#8 3#V f ].  ",
"  4#~ 5#6#| } 7#8#s@L+F.F.F.F..+Z+9#0#a#<+b#c#* d#e#@+m+6@6@8   ",
"  / t.f#g#$+h#i#j#k#W.l#`.m#c+n#p@o#p#q#;.s r#s#G+9 7 V+^ ^ t.  ",
"  - $ 9 a t#u# @v#w#x#y#z#A#B#C#8@D#i+:+* E#F#H+8.G#c n+$ H#b   ",
"  g#I#J#&.d K#L#M#.+b+N#O#P#Q#R#S#T#U#u@V#W#4#X#Y#: a.Z#K.9 `#  ",
"  H+ $h@)@.$U#+$K+F.!+@$-##$$$%$4 &$3 *$=$L -$;$>$,$W+V %#t '$  ",
"  m+>@@#O@$#)$F !$~+F.F.F.F.F.~$~$!+]+{$]$^$/$($)._$~.=+0 d '.  ",
"  d#%+$ B c :$<$[$}$>#|$1$..|$W.|$|$r+r+2$3$4$w@% 5$c -+6$R q.  ",
"  V#f#7$d y ;.8$9$0$a$b$A#c$d$e$f$g$h$i$N+j$k$O.7$l$m$t.n$o$a.  ",
"  ] p$q$V r$O@<+s$t$u$v$w$x$y$z$A$B$C$D$E$o+F+t.f#7 F$F+W+G$n+  ",
"  =+p.#+H$V#I$U+)@)#J$H+V+8 K$L$M$n+N$_$~.O$%#4#O.P$Q$R$S$T$    ",
"                                              =+U$              "};
